<?xml version="1.0" standalone="no"?>
<!DOCTYPE svg PUBLIC "-//W3C//DTD SVG 20010904//EN"
 "http://www.w3.org/TR/2001/REC-SVG-20010904/DTD/svg10.dtd">
<svg version="1.0" xmlns="http://www.w3.org/2000/svg"
 width="612.000000pt" height="408.000000pt" viewBox="0 0 612.000000 408.000000"
 preserveAspectRatio="xMidYMid meet">

<g transform="translate(0.000000,408.000000) scale(0.100000,-0.100000)"
fill="#000000" stroke="none">
<path d="M4410 4038 c-30 -23 -86 -68 -125 -99 -38 -31 -86 -65 -106 -75 -19
-10 -99 -64 -177 -118 l-141 -99 38 -27 c39 -29 71 -64 169 -190 74 -94 97
-136 78 -143 -7 -3 -19 -1 -26 3 -9 6 -22 0 -37 -16 -21 -22 -51 -34 -39 -15
3 4 -6 6 -19 3 -15 -3 -25 -11 -25 -22 0 -10 -7 -23 -14 -30 -8 -6 -20 -37
-26 -68 -13 -70 -39 -142 -50 -142 -4 0 -6 -9 -3 -19 3 -13 -2 -21 -16 -26
-12 -3 -19 -11 -16 -16 4 -5 -1 -9 -9 -9 -8 0 -20 9 -26 20 -6 11 -14 19 -18
16 -4 -2 -8 9 -8 26 -1 17 -6 33 -11 37 -12 8 -43 70 -43 86 0 7 7 18 15 25
19 15 45 67 37 74 -3 3 -12 0 -20 -7 -13 -10 -14 -8 -7 13 4 14 16 45 26 69
21 47 24 65 9 41 -8 -12 -10 -12 -10 5 0 16 -5 12 -21 -14 -16 -26 -23 -31
-29 -20 -7 11 -10 11 -15 -3 -4 -9 -21 -19 -40 -22 -18 -4 -36 -13 -39 -21 -3
-8 -12 -15 -20 -15 -7 0 -27 -7 -42 -15 -16 -8 -41 -15 -56 -15 -16 0 -28 -5
-28 -11 0 -5 -5 -7 -12 -3 -7 5 -9 2 -6 -8 4 -8 0 -15 -7 -15 -8 0 -14 3 -13
6 0 3 0 17 -1 30 -1 22 -3 23 -18 9 -10 -8 -25 -18 -34 -21 -9 -3 -27 -25 -41
-49 -15 -28 -30 -43 -43 -43 -11 0 -19 -3 -17 -8 3 -11 3 -10 7 -41 2 -15 1
-25 -2 -22 -4 4 -15 -12 -26 -35 -10 -22 -38 -61 -62 -85 l-44 -44 15 -42 c8
-24 22 -49 31 -55 26 -20 70 -15 94 10 l23 22 27 -27 c31 -32 73 -36 107 -13
19 14 25 14 52 0 17 -9 45 -15 63 -13 22 2 38 -4 54 -19 28 -29 55 -29 121 2
70 32 82 24 118 -79 47 -136 62 -122 -138 -130 -95 -4 -321 -14 -503 -22 -422
-18 -383 -19 -381 10 0 13 3 24 6 23 3 -1 5 3 5 8 0 6 -3 9 -7 7 -5 -1 -8 4
-8 10 0 8 -5 6 -11 -4 -5 -10 -16 -15 -24 -12 -10 4 -15 0 -15 -10 0 -9 -6
-19 -13 -22 -28 -10 -342 -31 -352 -23 -7 5 -16 0 -23 -12 -14 -22 -77 -27
-85 -6 -4 9 -7 9 -15 -1 -6 -8 -49 -16 -126 -21 -84 -5 -120 -12 -127 -22 -5
-8 -9 -66 -10 -129 -1 -63 -3 -182 -6 -265 -2 -82 -5 -187 -6 -232 -1 -46 -5
-83 -9 -83 -4 0 -8 -7 -8 -16 0 -8 3 -13 8 -10 4 2 6 -13 4 -34 -3 -32 1 -44
24 -67 l28 -28 -2 -205 c-2 -113 -5 -250 -7 -305 -33 -703 -35 -653 33 -682
31 -13 89 -16 332 -18 162 -1 498 -5 745 -9 311 -6 521 -5 680 3 442 23 585
25 585 11 0 -13 19 -12 230 9 90 9 104 15 119 47 17 38 14 317 -10 762 -13
246 -18 441 -14 512 4 72 0 188 -9 305 -8 105 -20 262 -26 350 -6 88 -14 168
-16 178 -5 15 -22 17 -176 17 -139 0 -169 2 -165 14 6 16 -56 48 -78 40 -8 -4
-15 -1 -15 5 0 6 -5 11 -11 11 -7 0 -9 -10 -6 -26 l4 -25 -163 2 c-144 1 -164
4 -164 18 0 19 -36 134 -56 176 -28 59 -21 109 28 203 25 48 49 103 53 122 15
71 61 131 79 101 9 -14 58 -20 78 -10 10 5 27 13 38 19 12 6 21 6 25 0 3 -5
-6 -12 -20 -16 -14 -3 -25 -9 -25 -13 0 -3 24 -30 54 -59 l53 -53 139 89 c76
49 202 124 279 167 154 87 639 382 675 411 8 7 83 46 165 87 112 56 169 92
226 141 42 36 80 62 84 58 5 -4 5 -1 1 6 -4 7 5 24 23 42 l29 30 -721 0 -722
0 -55 -42z m-820 -878 c5 0 12 -9 15 -20 6 -18 8 -18 21 -5 23 22 81 19 94 -4
11 -22 13 -64 3 -75 -4 -3 -8 -15 -10 -25 -2 -14 3 -17 22 -13 40 7 56 -14 54
-71 -2 -52 -31 -100 -68 -112 -10 -3 -24 -16 -31 -30 -7 -13 -20 -27 -28 -30
-12 -4 -14 3 -8 46 4 28 16 73 27 101 11 28 17 53 14 56 -3 3 -5 1 -5 -5 0 -5
-12 -15 -26 -22 -20 -9 -24 -14 -15 -25 9 -11 6 -21 -14 -45 -15 -17 -29 -30
-33 -30 -27 4 -34 -3 -29 -28 3 -17 -1 -32 -11 -42 -14 -15 -15 -14 -9 2 4 12
1 17 -9 17 -14 0 -15 8 -10 48 4 26 9 65 11 87 l5 40 -17 -40 c-23 -53 -59
-88 -84 -82 -10 3 -19 1 -19 -4 0 -5 11 -9 25 -9 16 0 25 -6 25 -15 0 -8 -7
-15 -16 -15 -9 0 -22 -7 -29 -16 -10 -14 -15 -15 -31 -5 -17 11 -16 11 6 5
l25 -7 -20 23 c-14 16 -16 24 -7 27 6 3 12 9 12 14 0 6 -4 7 -10 4 -41 -25 43
248 89 288 18 17 50 26 69 21 8 -2 17 -4 22 -4z m-176 -102 c21 -30 20 -35
-10 -63 -22 -21 -24 -25 -9 -25 15 0 15 -3 5 -15 -17 -21 -32 -14 -36 16 -2
13 -6 39 -8 56 -3 24 0 35 12 43 24 14 29 13 46 -12z m472 -189 c3 -6 -5 -3
-20 6 -14 10 -26 19 -26 22 0 7 39 -17 46 -28z m-640 -26 c-10 -10 -19 5 -10
18 6 11 8 11 12 0 2 -7 1 -15 -2 -18z m679 -148 c1 -50 -2 -51 -15 -6 -5 19
-5 33 1 37 5 3 6 11 3 17 -4 7 -3 9 1 4 5 -4 9 -27 10 -52z m-870 -254 c-3 -6
1 -11 9 -11 9 0 16 -4 16 -9 0 -5 8 -12 18 -15 9 -3 0 -3 -21 0 -26 4 -37 2
-32 -5 12 -20 -4 -46 -30 -47 -23 -2 -24 0 -9 10 11 9 14 19 10 34 -7 21 -9
21 -24 5 -15 -15 -17 -14 -23 8 l-7 24 -1 -25 -1 -24 -16 22 c-13 19 -19 21
-30 11 -10 -8 -12 -15 -4 -23 16 -16 13 -46 -5 -40 -8 4 -12 10 -9 15 3 5 0 9
-6 9 -6 0 -8 5 -5 10 3 6 1 10 -5 10 -6 0 -10 -10 -8 -21 2 -15 -3 -23 -15
-25 -43 -6 -29 -16 23 -16 3 0 23 3 45 6 29 5 36 4 25 -3 -11 -8 -12 -11 -2
-11 9 0 12 -11 10 -32 -2 -25 1 -33 16 -36 22 -5 36 13 36 46 0 12 5 22 10 22
6 0 10 -4 10 -10 0 -5 7 -10 15 -10 18 0 56 -36 48 -44 -4 -3 2 -6 11 -6 12 0
16 5 12 16 -4 10 -2 13 6 8 7 -5 9 1 6 18 -3 17 1 29 12 36 15 9 16 4 14 -47
-2 -31 -1 -48 2 -38 3 9 10 17 15 17 21 0 3 -35 -20 -40 -16 -3 -25 -13 -28
-29 -5 -32 -12 -39 -23 -21 -6 8 -10 10 -10 4 0 -21 27 -34 56 -28 28 5 29 4
31 -37 2 -24 7 -47 13 -53 28 -28 -15 -80 -57 -69 -16 3 -28 1 -34 -8 -6 -10
-9 -10 -9 -2 0 7 -7 10 -15 7 -11 -4 -13 -2 -9 9 3 9 12 18 20 21 16 6 19 56
4 56 -6 0 -15 -12 -20 -26 -8 -21 -13 -24 -24 -15 -15 13 -46 5 -46 -13 0 -6
-4 -17 -9 -25 -8 -12 -12 -12 -25 -2 -14 12 -16 10 -16 -18 0 -17 -4 -31 -10
-31 -5 0 -10 11 -10 24 0 14 -4 28 -10 31 -5 3 -10 -3 -10 -14 0 -12 -4 -21
-10 -21 -5 0 -10 6 -10 14 0 8 -3 21 -6 30 -4 12 0 16 17 17 24 2 24 2 2 6
-27 5 -31 33 -5 33 9 0 24 -12 33 -26 13 -21 17 -23 22 -10 4 9 -3 22 -17 33
-27 22 -42 69 -23 76 6 2 9 8 5 12 -13 14 -36 -21 -31 -48 3 -16 1 -27 -6 -27
-6 0 -11 16 -11 36 0 27 -4 35 -14 31 -8 -3 -17 1 -20 9 -3 9 -11 12 -17 9 -6
-4 -7 -14 -4 -24 16 -39 12 -63 -10 -73 -21 -9 -23 -18 -24 -76 0 -35 -3 -67
-6 -70 -3 -3 -5 16 -5 41 0 28 -5 47 -11 47 -8 0 -10 -12 -6 -35 3 -19 2 -35
-4 -35 -5 0 -9 7 -9 16 0 14 -3 14 -15 4 -8 -7 -15 -18 -15 -24 0 -6 5 -4 10
4 8 11 9 5 6 -23 -2 -21 -7 -41 -11 -45 -4 -4 -4 3 -1 15 6 18 4 22 -8 17 -11
-4 -13 0 -9 15 3 12 -3 28 -16 43 -12 12 -24 34 -27 48 -4 14 -10 39 -14 55
-8 28 -8 28 -9 5 -1 -20 -3 -22 -12 -10 -7 11 -8 4 -5 -25 3 -22 3 -31 0 -21
-6 18 -34 54 -34 43 0 -3 -3 -14 -6 -24 -5 -15 -4 -15 5 -3 9 12 11 10 11 -12
0 -16 -4 -28 -10 -28 -5 0 -10 -5 -10 -11 0 -11 -24 -39 -34 -39 -3 0 -6 9 -6
20 0 22 -15 27 -24 8 -3 -9 -14 -3 -30 17 -20 23 -26 26 -26 13 0 -22 -9 -22
-34 -3 -10 8 -24 11 -30 8 -6 -4 -4 1 3 11 14 16 16 16 27 2 10 -15 14 -14 37
4 17 13 28 17 32 10 5 -7 12 -5 20 7 13 17 14 17 9 -2 -6 -27 10 -49 31 -42 9
4 13 11 10 17 -4 6 -11 8 -16 5 -5 -4 -9 0 -9 9 0 8 3 16 8 18 4 2 4 19 1 38
-4 20 -7 26 -8 13 0 -12 -5 -24 -9 -27 -11 -6 -9 95 2 112 5 8 4 18 -3 25 -8
8 -15 6 -25 -9 -8 -10 -18 -16 -21 -12 -4 4 0 14 9 23 21 21 20 29 0 21 -14
-5 -15 -4 -5 8 7 8 19 12 27 9 8 -3 14 0 14 6 0 6 -4 11 -9 11 -6 0 -9 9 -8
20 1 11 5 20 10 20 5 0 7 -6 4 -13 -3 -8 3 -14 16 -14 11 -1 24 -8 28 -15 4
-7 11 -9 16 -5 4 5 1 12 -6 16 -8 5 -11 17 -6 30 4 15 3 21 -7 19 -7 -2 -12 3
-10 10 1 7 -9 12 -29 12 -17 0 -28 4 -24 10 3 6 -3 10 -13 10 -15 0 -19 -5
-15 -20 3 -11 0 -20 -6 -20 -6 0 -11 5 -11 10 0 6 -7 10 -15 10 -8 0 -15 6
-16 13 -1 6 -5 1 -9 -13 -5 -15 -8 -18 -9 -8 -1 11 -7 15 -21 11 -12 -3 -20
-2 -19 3 1 5 -1 17 -5 27 -9 19 -41 24 -33 4 6 -16 -20 -41 -28 -27 -11 18
-24 11 -27 -16 -3 -24 -4 -24 -23 -9 -11 9 -14 14 -7 10 7 -4 12 0 12 10 0 9
-4 14 -9 10 -5 -3 -13 0 -17 6 -4 8 -3 9 4 5 7 -4 12 -3 12 2 0 5 14 7 30 4
35 -5 42 14 8 21 -13 2 7 5 44 6 37 0 69 5 72 9 2 4 41 8 85 7 45 0 81 3 81 6
0 3 37 7 83 8 45 0 99 3 120 6 25 3 37 1 37 -8 0 -9 2 -9 8 0 4 7 37 13 79 15
39 2 95 4 123 6 35 2 50 0 45 -7z m95 -17 c0 -31 -21 -35 -42 -8 -23 29 -23
29 12 30 25 1 30 -3 30 -22z m197 20 c-3 -3 -12 -4 -19 -1 -8 3 -5 6 6 6 11 1
17 -2 13 -5z m-19 -34 c-7 -11 -16 -16 -21 -11 -12 12 0 31 19 31 12 0 12 -3
2 -20z m-1194 -48 c-3 -15 -5 -39 -6 -54 -2 -30 -13 -37 -22 -13 -3 8 -2 15 2
15 4 0 6 20 4 45 -3 37 -1 44 11 39 10 -3 14 -14 11 -32z m96 22 c0 -2 -7 -4
-15 -4 -8 0 -15 4 -15 10 0 5 7 7 15 4 8 -4 15 -8 15 -10z m1030 12 c0 -3 -4
-8 -10 -11 -5 -3 -10 -1 -10 4 0 6 5 11 10 11 6 0 10 -2 10 -4z m-50 -16 c-19
-13 -30 -13 -30 0 0 6 10 10 23 10 18 0 19 -2 7 -10z m-243 -6 c-3 -3 -12 -4
-19 -1 -8 3 -5 6 6 6 11 1 17 -2 13 -5z m308 -14 c3 -5 1 -10 -4 -10 -6 0 -11
5 -11 10 0 6 2 10 4 10 3 0 8 -4 11 -10z m-45 -10 c0 -5 -5 -10 -11 -10 -5 0
-7 5 -4 10 3 6 8 10 11 10 2 0 4 -4 4 -10z m-110 -46 c0 -1 -13 2 -30 7 -16 6
-27 15 -24 20 4 7 54 -17 54 -27z m1637 -36 c-2 -13 -4 -3 -4 22 0 25 2 35 4
23 2 -13 2 -33 0 -45z m-159 34 c2 -7 -3 -12 -12 -12 -9 0 -16 7 -16 16 0 17
22 14 28 -4z m-2240 -39 c-2 -9 -8 -18 -15 -20 -14 -5 -37 33 -28 47 9 15 47
-9 43 -27z m37 26 c11 -16 1 -19 -13 -3 -7 8 -8 14 -3 14 5 0 13 -5 16 -11z
m92 -9 c2 -22 -12 -27 -23 -9 -5 9 5 22 21 29 1 0 1 -9 2 -20z m-327 -5 c-11
-13 -7 -13 34 -1 25 8 46 11 46 6 0 -4 -9 -10 -20 -13 -11 -3 -20 -9 -20 -14
0 -12 58 -36 70 -28 5 3 10 2 10 -3 0 -14 -102 -20 -119 -8 -11 8 -13 8 -7 -1
4 -8 2 -13 -6 -13 -8 0 -7 -4 4 -10 11 -7 25 -6 42 1 30 14 58 6 50 -16 -4 -8
1 -27 11 -41 15 -24 18 -24 34 -10 15 14 18 14 18 1 0 -8 -4 -12 -8 -9 -4 2
-10 0 -13 -5 -3 -5 -16 -7 -28 -3 -19 4 -20 2 -14 -19 4 -13 10 -34 13 -46 3
-13 9 -23 13 -23 4 0 10 -12 13 -27 4 -24 4 -26 -8 -10 -16 22 -27 22 -24 0 2
-10 -3 -28 -9 -41 -12 -20 -10 -25 19 -52 18 -16 30 -33 25 -37 -4 -4 -11 -1
-16 7 -5 8 -13 11 -17 6 -4 -5 -3 -11 3 -13 6 -2 10 -14 9 -26 -1 -12 0 -14 2
-4 8 30 26 19 21 -14 -3 -20 0 -33 9 -36 7 -3 13 -13 12 -22 0 -10 -2 -11 -6
-3 -9 22 -25 13 -21 -13 3 -13 0 -27 -6 -30 -8 -3 -7 -7 2 -11 6 -3 10 -10 6
-15 -3 -5 1 -18 9 -29 13 -19 16 -20 31 -5 17 17 22 40 7 31 -4 -3 -6 6 -3 19
9 48 23 37 20 -15 l-3 -53 -95 -3 c-52 -2 -105 -6 -117 -9 -15 -3 -23 0 -27
12 -9 33 -11 300 -4 515 2 85 5 98 23 108 18 9 18 10 -4 4 -16 -4 -21 -3 -17
5 4 6 16 11 26 11 10 0 22 5 25 10 3 6 9 10 12 10 3 0 0 -7 -7 -15z m1047 -42
c-3 -10 -5 -4 -5 12 0 17 2 24 5 18 2 -7 2 -21 0 -30z m1478 15 c2 -7 5 -34 8
-60 3 -36 1 -45 -9 -41 -8 3 -14 11 -14 19 0 8 -6 11 -15 8 -11 -5 -15 1 -15
19 0 14 -3 32 -6 40 -3 10 2 17 13 20 30 8 33 7 38 -5z m-2236 -14 c-7 -8 -6
-13 3 -16 10 -4 11 -8 1 -20 -7 -8 -11 -18 -8 -21 3 -4 2 -4 -2 -1 -5 3 -8 16
-8 27 0 14 -6 22 -15 21 -9 -1 -20 4 -26 10 -8 8 0 11 27 11 28 0 35 -3 28
-11z m-79 -6 c0 -7 -11 -13 -25 -13 -23 0 -24 1 -8 13 9 6 20 12 25 12 4 0 8
-6 8 -12z m872 -13 c3 -13 1 -22 -3 -19 -9 5 -13 44 -5 44 2 0 6 -11 8 -25z
m175 -20 c-9 -9 -14 -10 -19 -1 -6 8 -8 7 -8 -2 0 -10 -3 -10 -14 0 -8 7 -12
17 -9 22 3 4 9 2 14 -5 7 -11 9 -11 9 1 0 13 1 13 11 0 8 -12 10 -10 5 10 -5
23 -4 24 9 6 11 -14 11 -21 2 -31z m130 13 c-3 -7 -5 -2 -5 12 0 14 2 19 5 13
2 -7 2 -19 0 -25z m1220 -60 c-2 -18 -4 -6 -4 27 0 33 2 48 4 33 2 -15 2 -42
0 -60z m-1617 37 c0 -8 -4 -15 -10 -15 -5 0 -10 7 -10 15 0 8 5 15 10 15 6 0
10 -7 10 -15z m-860 -26 c0 -18 -2 -20 -15 -9 -13 11 -13 15 -3 21 18 12 18
12 18 -12z m122 -14 c-6 -34 -12 -32 -12 6 0 16 4 28 9 25 4 -3 6 -17 3 -31z
m1028 -19 c0 -5 -7 -1 -15 10 -8 10 -14 24 -14 29 0 6 6 1 14 -9 8 -11 15 -24
15 -30z m-1060 14 c0 -11 -2 -20 -4 -20 -2 0 -6 9 -9 20 -3 11 -1 20 4 20 5 0
9 -9 9 -20z m80 -39 c0 -40 -4 -61 -13 -64 -27 -10 -39 8 -31 48 4 26 9 33 15
23 6 -9 9 -2 9 20 0 17 5 32 10 32 6 0 10 -26 10 -59z m42 7 c1 -21 -4 -44
-11 -50 -10 -11 -11 -7 -6 17 5 23 4 26 -4 15 -9 -12 -11 -11 -11 8 0 12 5 22
11 22 7 0 9 9 6 21 -4 13 -2 18 3 13 5 -5 10 -26 12 -46z m985 20 c-3 -7 -5
-2 -5 12 0 14 2 19 5 13 2 -7 2 -19 0 -25z m-1147 -12 c0 -3 -4 -8 -10 -11 -5
-3 -10 -1 -10 4 0 6 5 11 10 11 6 0 10 -2 10 -4z m2328 -13 c16 -16 16 -16 -1
-10 -10 4 -23 7 -28 7 -5 0 -9 5 -9 10 0 15 20 12 38 -7z m-1461 -15 c-3 -8
-6 -5 -6 6 -1 11 2 17 5 13 3 -3 4 -12 1 -19z m1576 -108 c6 -134 0 -120 -11
27 -4 57 -5 99 -1 95 4 -4 9 -59 12 -122z m-2393 99 c0 -6 -4 -7 -10 -4 -5 3
-10 11 -10 16 0 6 5 7 10 4 6 -3 10 -11 10 -16z m2318 -13 c0 -6 3 -27 7 -46
4 -19 7 -47 7 -62 0 -16 5 -28 10 -28 5 0 6 -5 3 -10 -4 -6 -11 -8 -16 -5 -5
4 -9 1 -9 -5 0 -6 -4 -8 -10 -5 -13 8 -13 45 1 45 23 0 -4 20 -29 21 -24 1
-23 3 8 9 31 6 32 8 8 9 -35 1 -42 14 -17 31 10 8 19 21 19 28 0 10 -4 11 -12
5 -7 -6 -21 -10 -30 -10 -13 0 -15 5 -8 17 10 18 66 23 68 6z m-2342 -43 c-10
-10 -19 5 -10 18 6 11 8 11 12 0 2 -7 1 -15 -2 -18z m2274 -3 c0 -5 -2 -10 -4
-10 -3 0 -8 5 -11 10 -3 6 -1 10 4 10 6 0 11 -4 11 -10z m-1812 -46 c7 -14 8
-23 2 -19 -15 9 -32 45 -22 45 5 0 14 -12 20 -26z m-175 2 c3 -8 -2 -16 -14
-19 -11 -3 -19 0 -19 7 0 26 24 35 33 12z m590 -26 c4 -17 3 -19 -9 -9 -8 6
-14 18 -14 26 0 20 16 8 23 -17z m-833 10 c0 -5 -7 -7 -15 -4 -8 4 -15 8 -15
10 0 2 7 4 15 4 8 0 15 -4 15 -10z m639 -27 c-1 -21 -3 -30 -6 -20 -2 9 -9 15
-14 12 -13 -8 -11 2 3 25 17 27 18 26 17 -17z m49 12 c-3 -3 -9 2 -12 12 -6
14 -5 15 5 6 7 -7 10 -15 7 -18z m272 9 c0 -8 -4 -12 -10 -9 -5 3 -10 10 -10
16 0 5 5 9 10 9 6 0 10 -7 10 -16z m314 0 c3 -8 2 -12 -4 -9 -6 3 -10 10 -10
16 0 14 7 11 14 -7z m-1220 -42 c-13 -95 -15 -101 -29 -95 -20 7 -19 -21 1
-41 16 -17 11 -36 -9 -36 -7 0 -6 4 3 10 13 8 13 10 -1 10 -22 0 -35 50 -17
61 15 10 -2 31 -28 35 -14 2 -16 -4 -11 -36 6 -44 -4 -52 -44 -38 -19 6 -28
18 -31 38 -3 20 -1 27 9 23 7 -3 13 -9 13 -14 0 -4 9 -13 20 -19 16 -9 20 -8
20 5 0 9 -4 13 -10 10 -11 -6 -26 42 -16 52 3 4 6 -3 6 -15 0 -12 5 -22 11
-22 6 0 8 9 4 22 -6 16 -4 20 8 15 12 -4 14 -2 10 10 -5 13 -3 14 15 4 12 -7
22 -19 22 -29 0 -15 2 -15 10 -2 8 13 10 12 10 -3 0 -10 5 -15 10 -12 6 3 10
31 10 61 0 32 4 53 9 49 5 -3 7 -22 5 -43z m1251 39 c3 -5 1 -12 -5 -16 -5 -3
-10 1 -10 9 0 18 6 21 15 7z m952 -13 c-3 -8 -6 -5 -6 6 -1 11 2 17 5 13 3 -3
4 -12 1 -19z m-893 -35 c-24 -32 -44 -41 -44 -19 0 9 11 22 25 28 14 6 25 16
25 21 0 6 3 7 7 4 4 -4 -2 -19 -13 -34z m-1504 17 c0 -5 -4 -10 -9 -10 -6 0
-13 5 -16 10 -3 6 1 10 9 10 9 0 16 -4 16 -10z m378 -69 c0 -69 -13 -80 -15
-14 -2 62 -10 77 -25 49 -8 -15 -12 -16 -19 -5 -13 22 -11 29 14 38 31 13 45
-8 45 -68z m-321 47 c-3 -8 -6 -5 -6 6 -1 11 2 17 5 13 3 -3 4 -12 1 -19z
m-17 -19 c6 -10 9 -19 6 -19 -9 0 -36 31 -36 41 0 14 18 1 30 -22z m1325 22
c3 -5 1 -12 -5 -16 -5 -3 -10 1 -10 9 0 18 6 21 15 7z m205 -1 c0 -5 -4 -10
-10 -10 -5 0 -10 5 -10 10 0 6 5 10 10 10 6 0 10 -4 10 -10z m817 -13 c-9 -6
-15 -21 -12 -32 2 -11 4 -23 4 -27 2 -16 21 -7 21 9 0 9 2 14 5 11 4 -3 3 -30
-1 -59 -4 -30 -9 -48 -11 -41 -3 6 -9 10 -14 6 -5 -3 -9 3 -10 13 0 10 -2 40
-5 68 -4 39 -1 52 12 62 10 7 20 11 23 8 2 -3 -3 -11 -12 -18z m96 -99 c4 -46
2 -60 -12 -72 -10 -9 -21 -13 -24 -10 -4 4 -13 1 -22 -6 -8 -7 -22 -10 -30 -6
-12 4 -10 10 10 30 14 14 25 32 25 41 0 8 5 15 10 15 6 0 10 23 10 50 0 33 -4
50 -12 50 -9 0 -8 3 2 10 19 12 35 -27 43 -102z m-57 59 c-2 -7 -5 -4 -5 6 -1
11 -9 17 -23 18 -22 0 -22 1 -3 8 22 9 40 -10 31 -32z m-1934 -9 c-6 -6 -7 0
-4 19 5 21 7 23 10 9 2 -10 0 -22 -6 -28z m1058 28 c0 -24 -17 -28 -23 -6 -3
13 0 20 9 20 8 0 14 -6 14 -14z m767 -33 c-3 -10 -5 -4 -5 12 0 17 2 24 5 18
2 -7 2 -21 0 -30z m-822 -3 c-5 -15 -2 -20 13 -20 29 0 48 -26 32 -44 -8 -11
-9 -20 -1 -33 9 -17 10 -17 17 2 15 40 48 46 64 13 9 -20 9 -21 -2 -7 -19 23
-36 13 -31 -19 3 -23 2 -24 -6 -7 -8 16 -10 10 -10 -28 -1 -46 -2 -47 -20 -30
-10 10 -20 25 -23 33 -4 11 -10 8 -30 -13 -21 -23 -27 -25 -32 -12 -3 9 -2 14
3 11 5 -3 11 1 15 9 3 9 0 15 -9 15 -8 0 -15 8 -15 18 0 15 6 18 30 14 19 -3
30 0 30 8 0 6 -8 9 -18 5 -19 -5 -72 28 -72 46 0 16 28 9 34 -8 2 -10 2 -2 -1
19 -4 29 -1 37 14 41 10 3 19 5 21 6 2 0 0 -8 -3 -19z m1032 -72 c-2 -13 -4
-3 -4 22 0 25 2 35 4 23 2 -13 2 -33 0 -45z m-1957 42 c0 -5 -4 -10 -10 -10
-5 0 -10 5 -10 10 0 6 5 10 10 10 6 0 10 -4 10 -10z m799 -59 c10 -9 16 -21
14 -27 -2 -7 10 -17 27 -22 16 -6 30 -14 30 -17 0 -3 -4 -3 -10 0 -5 3 -18 1
-27 -4 -16 -9 -16 -10 5 -11 12 0 22 -5 22 -11 0 -6 -7 -8 -16 -5 -9 4 -22 2
-29 -4 -10 -8 -17 -5 -29 12 -12 17 -13 24 -3 30 6 4 8 8 2 8 -5 0 -4 4 4 9
10 6 11 13 3 27 -6 11 -14 17 -18 14 -4 -3 -8 11 -10 30 -3 31 -2 32 7 11 5
-13 18 -31 28 -40z m231 55 c0 -2 -7 -9 -15 -16 -12 -10 -15 -10 -15 4 0 9 7
16 15 16 8 0 15 -2 15 -4z m-203 -32 c-3 -4 4 -15 16 -24 12 -10 19 -21 16
-24 -8 -8 -49 28 -49 43 0 6 5 11 12 11 6 0 9 -3 5 -6z m940 -30 c-3 -3 -12
-4 -19 -1 -8 3 -5 6 6 6 11 1 17 -2 13 -5z m155 -45 c-18 -16 -38 -29 -45 -29
-6 1 -1 7 13 15 14 7 32 23 39 34 8 11 17 18 20 15 4 -3 -9 -19 -27 -35z
m-1152 15 c0 -8 -5 -12 -10 -9 -6 4 -8 11 -5 16 9 14 15 11 15 -7z m-853 -16
c-3 -8 -6 -5 -6 6 -1 11 2 17 5 13 3 -3 4 -12 1 -19z m1882 6 c9 -9 -5 -11
-36 -7 -18 3 -30 10 -27 15 6 9 53 3 63 -8z m-1166 -1 c-7 -2 -19 -2 -25 0 -7
3 -2 5 12 5 14 0 19 -2 13 -5z m426 -37 c1 -5 -5 -3 -12 3 -8 6 -16 9 -19 6
-2 -3 -5 2 -5 10 0 8 4 12 9 9 4 -3 8 1 9 8 0 13 17 -19 18 -36z m651 30 c0
-8 -10 -13 -24 -13 -17 0 -23 4 -19 13 3 8 14 14 24 14 10 0 19 -6 19 -14z
m-243 -11 c0 -8 -4 -12 -9 -9 -4 3 -8 9 -8 15 0 5 4 9 8 9 5 0 9 -7 9 -15z
m123 11 c0 -3 -4 -8 -10 -11 -5 -3 -10 -1 -10 4 0 6 5 11 10 11 6 0 10 -2 10
-4z m60 -6 c0 -5 -5 -10 -11 -10 -5 0 -7 5 -4 10 3 6 8 10 11 10 2 0 4 -4 4
-10z m-1834 -14 c3 -8 12 -12 19 -10 7 3 18 -3 23 -13 9 -17 6 -19 -34 -19
-42 -1 -44 0 -42 28 2 29 25 38 34 14z m1134 -6 c0 -11 -4 -20 -10 -20 -5 0
-10 9 -10 20 0 11 5 20 10 20 6 0 10 -9 10 -20z m290 -2 c0 -6 -6 -5 -15 2
-10 9 -15 9 -15 1 0 -6 -5 -11 -11 -11 -8 0 -8 4 1 14 12 16 40 11 40 -6z m55
12 c3 -5 1 -10 -4 -10 -6 0 -11 5 -11 10 0 6 2 10 4 10 3 0 8 -4 11 -10z m115
0 c0 -5 -4 -10 -10 -10 -5 0 -10 5 -10 10 0 6 5 10 10 10 6 0 10 -4 10 -10z
m30 0 c0 -5 -5 -10 -11 -10 -5 0 -7 5 -4 10 3 6 8 10 11 10 2 0 4 -4 4 -10z
m-675 -10 c4 -6 1 -9 -7 -8 -8 2 -13 -8 -14 -27 -1 -16 -2 -36 -3 -42 -1 -10
-41 -13 -158 -15 -114 -1 -141 -3 -98 -8 l60 -7 -57 -1 c-32 -1 -58 -6 -58
-12 0 -5 5 -10 10 -10 6 0 10 -22 10 -50 0 -27 -3 -50 -8 -50 -4 0 -7 19 -6
43 1 39 1 39 -3 5 -6 -57 -24 -45 -23 15 0 28 -3 78 -8 110 -4 32 -6 60 -3 62
9 10 360 5 366 -5z m125 -10 c0 -5 -4 -10 -10 -10 -5 0 -10 5 -10 10 0 6 5 10
10 10 6 0 10 -4 10 -10z m843 3 c-7 -2 -19 -2 -25 0 -7 3 -2 5 12 5 14 0 19
-2 13 -5z m54 1 c-3 -3 -12 -4 -19 -1 -8 3 -5 6 6 6 11 1 17 -2 13 -5z m-2187
-8 c0 -2 -8 -10 -17 -17 -16 -13 -17 -12 -4 4 13 16 21 21 21 13z m2058 -3
c-10 -2 -28 -2 -40 0 -13 2 -5 4 17 4 22 1 32 -1 23 -4z m-2414 -19 c3 -8 2
-12 -4 -9 -6 3 -10 10 -10 16 0 14 7 11 14 -7z m589 -31 c-7 -2 -21 -2 -30 0
-10 3 -4 5 12 5 17 0 24 -2 18 -5z m-470 -10 c-13 -2 -35 -2 -50 0 -16 2 -5 4
22 4 28 0 40 -2 28 -4z m1417 -3 c0 -5 -5 -10 -11 -10 -5 0 -7 5 -4 10 3 6 8
10 11 10 2 0 4 -4 4 -10z m-1311 -64 c8 -10 9 -16 1 -21 -6 -4 -7 -12 -1 -23
6 -11 5 -25 -2 -37 -14 -26 -17 -56 -4 -48 6 4 7 1 1 -8 -13 -21 -14 -38 -2
-46 7 -3 8 -1 4 5 -4 7 -2 12 3 12 17 0 13 -20 -4 -26 -13 -5 -13 -9 -3 -22
11 -13 10 -14 -9 -3 -18 9 -22 9 -18 -1 12 -34 13 -73 3 -85 -7 -9 -7 -13 1
-13 6 0 11 -5 11 -11 0 -5 -4 -7 -10 -4 -6 3 -10 -5 -10 -19 0 -13 -3 -32 -7
-42 -5 -14 -2 -16 15 -12 26 7 39 -9 23 -25 -9 -9 -14 -8 -21 3 -8 13 -10 12
-10 -2 0 -31 1 -33 18 -30 13 2 14 1 4 -6 -7 -5 -14 -15 -16 -23 -1 -8 -7 -23
-14 -34 -10 -17 -12 -13 -13 30 -3 92 10 450 17 483 5 25 26 29 43 8z m855
-11 l8 -20 8 20 c8 18 9 18 9 -4 1 -28 16 -19 24 14 3 11 5 -20 4 -69 -1 -80
1 -90 18 -97 20 -7 20 -7 1 -15 -18 -7 -18 -8 4 -16 18 -7 20 -11 10 -23 -7
-8 -9 -15 -4 -15 26 -1 -26 -20 -54 -20 -20 0 -35 -6 -38 -15 -4 -8 -12 -15
-20 -15 -8 0 -14 -4 -14 -10 0 -14 -37 -12 -43 3 -4 10 -7 10 -18 0 -10 -10
-10 -13 -1 -13 9 0 8 -8 -3 -30 -9 -16 -23 -30 -31 -30 -10 0 -14 -6 -10 -15
8 -21 -8 -19 -29 5 -10 11 -16 29 -13 43 4 20 1 23 -24 19 -15 -2 -28 -11 -28
-18 0 -8 -6 -14 -12 -15 -10 0 -10 -2 0 -6 6 -2 12 -11 12 -18 0 -7 10 -15 23
-19 l22 -5 -27 -27 c-24 -24 -29 -26 -44 -13 -15 13 -16 12 -10 -11 5 -17 4
-21 -2 -11 -14 20 -43 6 -35 -16 3 -10 2 -15 -2 -10 -5 4 -17 0 -27 -10 -17
-16 -18 -15 -16 20 2 29 7 37 23 38 16 1 15 2 -5 8 -28 9 -43 4 -35 -10 4 -5
1 -9 -4 -9 -6 0 -11 5 -11 11 0 8 -5 7 -15 -1 -12 -10 -19 -10 -27 -2 -9 9 -7
16 8 27 19 14 19 14 -3 15 -12 0 -25 -5 -29 -11 -5 -8 -9 -8 -14 1 -12 19
-121 24 -144 7 -18 -13 -22 -11 -44 14 -13 16 -32 29 -43 29 -12 0 -19 7 -19
20 0 11 5 20 11 20 5 0 7 5 3 11 -10 16 -27 -18 -21 -41 3 -11 0 -21 -7 -24
-8 -3 -7 -7 2 -14 12 -8 12 -13 1 -31 -8 -11 -17 -21 -20 -21 -3 0 -16 -9 -29
-20 -21 -18 -25 -19 -32 -5 -11 18 -1 38 14 29 7 -5 8 -2 4 5 -5 8 -1 14 11
17 16 4 19 12 15 32 l-6 27 -8 -25 c-5 -17 -6 -12 -2 15 3 22 14 48 25 58 21
20 21 22 13 55 -5 17 -11 21 -27 16 -20 -6 -20 -6 -4 10 9 10 17 22 17 27 0 5
8 9 18 9 15 0 15 2 2 11 -11 8 -7 9 16 4 30 -6 31 -5 26 26 -3 22 -7 27 -13
18 -5 -8 -9 -9 -10 -4 0 6 -5 1 -10 -10 -8 -18 -8 -18 -6 5 2 20 8 25 30 26
20 1 26 -3 23 -12 -9 -22 12 -16 25 7 8 16 13 18 19 9 5 -7 9 -2 13 17 6 34 2
40 -18 23 -9 -8 -15 -8 -15 -2 0 6 -7 18 -16 26 -14 15 -13 16 10 16 14 0 27
4 31 10 3 5 18 9 33 9 15 1 47 2 72 4 25 2 57 0 73 -4 15 -4 27 -4 27 -1 0 4
89 9 197 10 109 2 200 5 202 7 9 9 27 -1 35 -20z m426 15 c8 -5 15 -24 15 -44
0 -27 -5 -36 -20 -40 -33 -9 -35 -8 -35 37 0 56 9 67 40 47z m-150 -59 c0 -9
-5 -22 -12 -29 -15 -15 -38 -16 -38 -1 0 5 4 8 8 5 4 -2 13 4 20 14 9 14 8 19
-3 24 -9 3 -12 0 -8 -10 3 -7 0 -14 -6 -14 -11 0 -15 22 -5 32 11 11 44 -5 44
-21z m-170 -46 c0 -12 27 -15 158 -18 l157 -3 -167 -2 c-162 -2 -168 -1 -168
18 0 11 5 20 10 20 6 0 10 -7 10 -15z m-950 -5 c0 -5 -2 -10 -4 -10 -3 0 -8 5
-11 10 -3 6 -1 10 4 10 6 0 11 -4 11 -10z m-156 -25 c3 -8 1 -15 -4 -15 -6 0
-10 7 -10 15 0 8 2 15 4 15 2 0 6 -7 10 -15z m56 -4 c0 -5 -7 -11 -14 -14 -10
-4 -13 -1 -9 9 6 15 23 19 23 5z m2427 -88 c-2 -16 -4 -5 -4 22 0 28 2 40 4
28 2 -13 2 -35 0 -50z m-2452 16 c-6 -9 -44 -4 -54 7 -3 4 2 4 12 1 11 -4 17
-1 17 10 0 12 3 13 15 3 8 -7 12 -16 10 -21z m42 9 c-3 -8 -6 -5 -6 6 -1 11 2
17 5 13 3 -3 4 -12 1 -19z m-20 -135 c-3 -10 -5 -2 -5 17 0 19 2 27 5 18 2
-10 2 -26 0 -35z m873 7 c0 -5 -4 -10 -10 -10 -5 0 -10 5 -10 10 0 6 5 10 10
10 6 0 10 -4 10 -10z m-753 -22 c-3 -8 -6 -5 -6 6 -1 11 2 17 5 13 3 -3 4 -12
1 -19z m620 -14 c-3 -3 -12 -4 -19 -1 -8 3 -5 6 6 6 11 1 17 -2 13 -5z m1700
-146 c-2 -29 -3 -8 -3 47 0 55 1 79 3 53 2 -26 2 -71 0 -100z m-2472 110 c-4
-40 -7 -43 -14 -18 -8 26 -5 40 8 40 5 0 7 -10 6 -22z m21 -72 c14 6 13 2 -6
-13 -26 -22 -43 -14 -33 14 4 10 8 11 13 3 4 -6 15 -8 26 -4z m21 -98 c-3 -8
-6 -5 -6 6 -1 11 2 17 5 13 3 -3 4 -12 1 -19z m176 -8 c-7 -28 -13 -25 -13 6
0 14 4 23 9 20 5 -3 7 -15 4 -26z m-143 -20 c0 -11 -4 -20 -9 -20 -5 0 -7 9
-4 20 3 11 7 20 9 20 2 0 4 -9 4 -20z m-92 -41 c-3 -8 -7 -3 -11 10 -4 17 -3
21 5 13 5 -5 8 -16 6 -23z m25 -4 c-7 -21 -12 -19 -10 4 0 11 5 18 9 15 4 -3
5 -11 1 -19z m80 8 c-7 -2 -13 -11 -13 -18 0 -8 -5 -17 -10 -20 -8 -5 -8 17
-1 43 1 1 9 2 19 1 10 0 12 -3 5 -6z m114 -9 c-3 -3 -12 -4 -19 -1 -8 3 -5 6
6 6 11 1 17 -2 13 -5z m-132 -54 c3 -5 1 -10 -4 -10 -6 0 -11 5 -11 10 0 6 2
10 4 10 3 0 8 -4 11 -10z m-81 -26 c3 -8 2 -12 -4 -9 -6 3 -10 10 -10 16 0 14
7 11 14 -7z m576 -19 c-12 -19 -19 -35 -16 -35 11 0 21 5 19 10 -1 3 13 5 32
5 22 0 31 -4 28 -13 -3 -7 0 -19 6 -26 9 -11 9 -16 0 -21 -6 -4 -15 -1 -20 6
-6 11 -11 11 -21 1 -6 -6 -26 -12 -44 -12 -18 0 -34 -5 -36 -12 -3 -8 -14 -5
-33 10 -22 17 -30 20 -37 10 -8 -13 -8 -12 -8 17 0 3 2 4 5 3 2 -2 12 7 20 20
12 16 22 21 40 16 19 -5 30 1 51 25 34 41 41 39 14 -4z m-495 15 c3 -5 1 -10
-4 -10 -6 0 -11 5 -11 10 0 6 2 10 4 10 3 0 8 -4 11 -10z m625 0 c0 -5 -4 -10
-10 -10 -5 0 -10 -10 -10 -22 0 -12 -3 -19 -6 -15 -9 9 5 57 16 57 6 0 10 -4
10 -10z m-704 -32 c4 -6 3 -8 -3 -5 -6 4 -10 -7 -11 -24 -1 -44 -12 -50 -12
-7 0 43 12 60 26 36z m84 2 c0 -5 -4 -10 -10 -10 -5 0 -10 5 -10 10 0 6 5 10
10 10 6 0 10 -4 10 -10z m-54 -32 c4 -6 3 -8 -4 -4 -5 3 -12 0 -15 -6 -2 -7
-8 -9 -13 -5 -5 4 -2 12 6 17 19 12 17 12 26 -2z m51 -2 c-3 -8 1 -17 9 -20 8
-3 14 -10 14 -15 0 -6 -7 -8 -15 -5 -11 5 -13 2 -9 -10 4 -10 1 -16 -8 -16
-10 0 -13 11 -10 40 2 22 9 40 14 40 6 0 8 -6 5 -14z m-47 -26 c0 -5 -5 -10
-11 -10 -5 0 -7 5 -4 10 3 6 8 10 11 10 2 0 4 -4 4 -10z m160 -9 c0 -6 -4 -13
-10 -16 -5 -3 -10 1 -10 9 0 9 5 16 10 16 6 0 10 -4 10 -9z m-195 -11 c-3 -5
-1 -10 6 -10 7 0 10 -3 6 -6 -9 -9 -28 6 -22 17 4 5 8 9 11 9 3 0 2 -4 -1 -10z
m75 -40 c0 -5 -5 -10 -11 -10 -5 0 -7 5 -4 10 3 6 8 10 11 10 2 0 4 -4 4 -10z
m5 -30 c-3 -5 -11 -10 -16 -10 -6 0 -7 5 -4 10 3 6 11 10 16 10 6 0 7 -4 4
-10z m-50 -50 c-3 -5 -15 -10 -25 -10 -10 0 -22 5 -25 10 -4 6 7 10 25 10 18
0 29 -4 25 -10z"/>
<path d="M2707 2403 c-10 -9 -9 -23 2 -23 5 0 11 7 15 15 5 15 -5 20 -17 8z"/>
<path d="M2708 2373 c-10 -2 -18 -9 -18 -15 0 -6 9 -8 20 -5 11 3 18 1 14 -4
-3 -5 -26 -10 -52 -10 l-47 -2 58 -10 c31 -6 57 -14 57 -19 0 -5 -4 -6 -10 -3
-5 3 -10 1 -10 -4 0 -6 -11 -11 -25 -11 -14 0 -25 -5 -25 -11 0 -7 9 -9 21 -6
15 4 23 0 26 -13 5 -17 7 -17 28 6 16 18 25 21 28 12 4 -8 6 -7 6 5 1 9 6 16
12 15 6 -2 14 3 16 11 4 9 0 11 -16 6 -15 -5 -21 -2 -21 10 0 9 4 14 9 11 12
-8 41 4 41 16 0 5 -4 6 -10 3 -5 -3 -10 -1 -10 5 0 6 -10 8 -24 4 -13 -3 -27
-1 -30 5 -7 11 -10 12 -38 4z"/>
<path d="M2838 2373 c7 -3 16 -2 19 1 4 3 -2 6 -13 5 -11 0 -14 -3 -6 -6z"/>
<path d="M2518 2363 c7 -3 16 -2 19 1 4 3 -2 6 -13 5 -11 0 -14 -3 -6 -6z"/>
<path d="M2625 2360 c-4 -6 7 -10 27 -9 27 0 30 2 13 9 -27 12 -33 12 -40 0z"/>
<path d="M2815 2296 c2 -17 -2 -37 -7 -43 -6 -8 -7 -13 -1 -13 8 0 43 67 43
83 0 3 -8 5 -18 4 -14 -1 -18 -8 -17 -31z"/>
<path d="M2621 2293 c-1 -34 12 -44 23 -17 3 8 2 12 -3 9 -5 -3 -12 5 -14 17
-3 17 -5 14 -6 -9z"/>
<path d="M2859 2313 c-1 -5 -2 -22 -4 -40 -3 -30 -2 -31 34 -27 26 3 32 1 21
-6 -8 -5 -21 -10 -28 -10 -25 0 -50 -34 -42 -55 l8 -20 8 20 c12 31 24 35 97
28 68 -5 69 -5 55 16 -7 11 -23 21 -35 21 -13 0 -23 5 -23 10 0 6 -7 10 -15
10 -19 0 -19 10 1 38 8 12 11 22 6 22 -5 0 -15 -13 -22 -30 -7 -16 -17 -27
-22 -24 -5 3 -7 8 -4 11 7 8 -13 43 -24 43 -6 0 -10 -3 -11 -7z m21 -29 c0 -8
-4 -12 -10 -9 -5 3 -10 10 -10 16 0 5 5 9 10 9 6 0 10 -7 10 -16z m60 -64 c0
-5 -4 -10 -10 -10 -5 0 -10 5 -10 10 0 6 5 10 10 10 6 0 10 -4 10 -10z"/>
<path d="M2554 2226 c-3 -8 -4 -23 -2 -33 3 -11 6 -6 9 15 6 34 2 42 -7 18z"/>
<path d="M2631 2224 c0 -11 3 -14 6 -6 3 7 2 16 -1 19 -3 4 -6 -2 -5 -13z"/>
<path d="M2647 2207 c-3 -8 1 -21 9 -27 15 -13 17 -6 5 24 -6 17 -8 17 -14 3z"/>
<path d="M2570 2180 c0 -5 5 -10 10 -10 6 0 10 5 10 10 0 6 -4 10 -10 10 -5 0
-10 -4 -10 -10z"/>
<path d="M2920 2180 c0 -5 5 -10 10 -10 6 0 10 5 10 10 0 6 -4 10 -10 10 -5 0
-10 -4 -10 -10z"/>
<path d="M2985 2157 c-17 -13 -17 -14 2 -19 12 -3 27 -2 34 3 8 5 10 9 4 9 -5
0 -3 5 5 10 12 8 11 10 -6 10 -11 0 -28 -6 -39 -13z"/>
<path d="M2580 2135 c-7 -9 -11 -17 -9 -20 3 -2 10 5 17 15 14 24 10 26 -8 5z"/>
<path d="M2770 2115 c0 -8 5 -15 10 -15 6 0 10 7 10 15 0 8 -4 15 -10 15 -5 0
-10 -7 -10 -15z"/>
<path d="M2920 2109 c0 -5 5 -7 10 -4 6 3 10 8 10 11 0 2 -4 4 -10 4 -5 0 -10
-5 -10 -11z"/>
<path d="M2595 2090 c3 -5 8 -10 11 -10 2 0 4 5 4 10 0 6 -5 10 -11 10 -5 0
-7 -4 -4 -10z"/>
<path d="M3000 2075 c0 -14 4 -25 10 -25 5 0 9 11 8 25 -1 14 -6 25 -10 25 -4
0 -8 -11 -8 -25z"/>
<path d="M2555 2080 c-3 -5 -1 -10 4 -10 6 0 11 5 11 10 0 6 -2 10 -4 10 -3 0
-8 -4 -11 -10z"/>
<path d="M3156 2035 c4 -8 8 -15 10 -15 2 0 4 7 4 15 0 8 -4 15 -10 15 -5 0
-7 -7 -4 -15z"/>
<path d="M2670 2015 c0 -14 4 -25 9 -25 5 0 9 11 9 25 0 14 -4 25 -9 25 -5 0
-9 -11 -9 -25z"/>
<path d="M2330 2270 c0 -5 5 -10 10 -10 6 0 10 5 10 10 0 6 -4 10 -10 10 -5 0
-10 -4 -10 -10z"/>
<path d="M2210 2069 c0 -5 5 -7 10 -4 6 3 10 8 10 11 0 2 -4 4 -10 4 -5 0 -10
-5 -10 -11z"/>
<path d="M2220 1790 c-8 -5 -23 -7 -32 -4 -15 4 -18 -1 -17 -33 0 -30 2 -34 9
-18 7 19 8 19 15 2 6 -15 10 -16 17 -5 5 8 6 -1 2 -23 -6 -36 8 -61 21 -39 4
6 9 8 13 6 4 -2 8 14 9 36 0 23 7 44 13 48 9 5 9 9 1 14 -6 4 -11 2 -11 -4 0
-6 -5 -8 -11 -4 -8 4 -9 -1 -4 -17 7 -24 7 -24 -12 -4 -18 18 -18 21 -4 32 20
14 11 26 -9 13z"/>
<path d="M4662 2220 c0 -14 2 -19 5 -12 2 6 2 18 0 25 -3 6 -5 1 -5 -13z"/>
<path d="M4650 2060 c0 -5 5 -10 10 -10 6 0 10 5 10 10 0 6 -4 10 -10 10 -5 0
-10 -4 -10 -10z"/>
<path d="M2635 1650 c-3 -5 -1 -10 4 -10 6 0 11 5 11 10 0 6 -2 10 -4 10 -3 0
-8 -4 -11 -10z"/>
<path d="M2562 1469 c2 -6 7 -10 12 -9 5 1 13 -4 17 -12 6 -9 9 -7 9 10 0 16
-6 22 -21 22 -11 0 -19 -5 -17 -11z"/>
<path d="M3031 1214 c0 -11 3 -14 6 -6 3 7 2 16 -1 19 -3 4 -6 -2 -5 -13z"/>
<path d="M3020 1180 c0 -5 5 -10 10 -10 6 0 10 5 10 10 0 6 -4 10 -10 10 -5 0
-10 -4 -10 -10z"/>
<path d="M3560 1480 c0 -22 5 -40 10 -40 6 0 10 18 10 40 0 22 -4 40 -10 40
-5 0 -10 -18 -10 -40z"/>
<path d="M6030 4070 c0 -5 5 -10 10 -10 6 0 10 -9 10 -20 0 -10 10 -30 23 -42
13 -13 29 -33 35 -43 9 -16 11 -7 12 53 l0 72 -45 0 c-25 0 -45 -4 -45 -10z"/>
<path d="M3100 2914 c-140 -106 -171 -134 -161 -152 6 -11 2 -25 -15 -48 -21
-27 -22 -33 -9 -38 12 -4 13 -10 6 -24 -6 -11 -7 -31 -3 -47 8 -27 8 -27 35
23 26 49 102 129 194 205 23 19 39 37 36 41 -9 8 -9 76 0 76 4 0 7 5 7 10 0
18 -14 11 -90 -46z m65 17 c-39 -37 -199 -161 -208 -161 -14 0 -10 4 103 94
52 42 99 76 104 76 6 0 6 -3 1 -9z m-218 -263 c-3 -8 -6 -5 -6 6 -1 11 2 17 5
13 3 -3 4 -12 1 -19z"/>
<path d="M6080 1081 c-20 -5 -26 -14 -28 -44 -2 -20 -7 -37 -13 -37 -5 0 -9
-14 -9 -31 0 -32 -30 -69 -57 -69 -7 0 -13 -7 -13 -16 0 -19 -24 -44 -43 -44
-7 0 -20 -18 -27 -40 -7 -22 -17 -40 -22 -40 -15 0 -38 -27 -38 -44 0 -9 -7
-16 -15 -16 -8 0 -15 -4 -15 -10 0 -5 -6 -10 -14 -10 -7 0 -16 -9 -19 -21 -3
-12 -10 -18 -16 -14 -12 7 -41 -17 -41 -34 0 -6 -6 -11 -14 -11 -8 0 -17 -15
-20 -35 -4 -19 -12 -35 -17 -35 -14 0 -39 -26 -39 -39 0 -6 -9 -11 -20 -11
-12 0 -20 -7 -20 -16 0 -18 -23 -44 -39 -44 -6 0 -11 -9 -11 -19 0 -11 -9 -23
-22 -27 -26 -8 -48 -28 -48 -43 0 -6 -9 -11 -20 -11 -11 0 -20 -5 -20 -11 0
-14 -25 -39 -39 -39 -6 0 -11 -9 -11 -19 0 -12 -11 -23 -31 -30 -17 -6 -33
-19 -36 -30 -3 -11 -18 -25 -34 -31 -16 -7 -29 -19 -29 -26 0 -8 -16 -16 -39
-20 -30 -5 -41 -12 -45 -30 -4 -13 -20 -31 -36 -39 -17 -9 -30 -22 -30 -30 0
-13 68 -15 515 -15 l515 0 0 545 c0 300 -3 545 -7 544 -5 -1 -19 -4 -33 -8z"/>
<path d="M0 105 l0 -105 70 0 c68 0 70 1 70 25 0 18 -5 25 -20 25 -15 0 -20 7
-20 25 0 18 -5 25 -20 25 -16 0 -20 7 -20 30 0 17 -4 30 -10 30 -5 0 -10 9
-10 19 0 16 -18 31 -36 31 -2 0 -4 -47 -4 -105z"/>
</g>
</svg>
